# Blender v2.79 (sub 0) OBJ File: ''
# www.blender.org
mtllib mesh.mtl
o Cube
v 1.000000 -1.000000 -1.000000
v 1.000000 -1.000000 1.000000
v -1.000000 -1.000000 1.000000
v -1.000000 -1.000000 -1.000000
v 1.000000 1.000000 -0.999999
v 0.999999 1.000000 1.000001
v -1.000000 1.000000 1.000000
v -1.000000 1.000000 -1.000000
vt 0.612174 0.329232
vt 0.443815 0.497591
vt 0.443815 0.329232
vt 0.611759 0.800236
vt 0.410702 0.497616
vt 0.611759 0.497616
vt 0.405011 1.000189
vt 0.619104 0.802977
vt 0.618218 0.998023
vt 0.613281 0.496094
vt 0.403646 0.800130
vt 0.615234 0.794271
vt 0.615944 0.318394
vt 0.406613 0.126905
vt 0.616559 0.127520
vt 0.614575 0.304533
vt 0.407234 0.498202
vt 0.407723 0.306486
vt 0.612174 0.497591
vt 0.409725 0.800236
vt 0.404691 0.803912
vt 0.407552 0.500000
vt 0.408459 0.317164
vt 0.614575 0.496249
vn 0.0000 -1.0000 0.0000
vn 0.0000 1.0000 0.0000
vn 1.0000 -0.0000 0.0000
vn 0.0000 -0.0000 1.0000
vn -1.0000 -0.0000 -0.0000
vn 0.0000 0.0000 -1.0000
usemtl Material
s off
f 2/1/1 4/2/1 1/3/1
f 8/4/2 6/5/2 5/6/2
f 5/7/3 2/8/3 1/9/3
f 6/10/4 3/11/4 2/12/4
f 3/13/5 8/14/5 4/15/5
f 1/16/6 8/17/6 5/18/6
f 2/1/1 3/19/1 4/2/1
f 8/4/2 7/20/2 6/5/2
f 5/7/3 6/21/3 2/8/3
f 6/10/4 7/22/4 3/11/4
f 3/13/5 7/23/5 8/14/5
f 1/16/6 4/24/6 8/17/6
