# Blender v2.79 (sub 0) OBJ File: 'Low Poly Tree 4.blend'
# www.blender.org
mtllib tree_lowpoly.mtl
o Low_Poly_Tree_4_Cylinder.043
v 1.957865 -5.088907 -4.344985
v 2.002372 -5.088907 -1.974630
v 2.075552 -4.802211 -4.329102
v 2.107023 -4.836259 -1.974630
v 2.359672 -4.683458 -4.290756
v 2.359672 -4.731608 -1.974630
v 2.698072 -4.802211 -4.252409
v 2.612320 -4.836259 -1.974630
v 2.815758 -5.088907 -4.236525
v 2.716971 -5.088907 -1.974630
v 2.698072 -5.375604 -4.252409
v 2.612320 -5.341556 -1.974630
v 2.359672 -5.494357 -4.290756
v 2.359672 -5.446207 -1.974630
v 2.075552 -5.375604 -4.329102
v 2.107023 -5.341556 -1.974630
v 0.315464 -5.115106 -2.340454
v 0.925932 -3.664643 -2.284714
v 2.353628 -3.068252 -2.293884
v 3.784863 -3.655535 -2.266623
v 4.381242 -5.082467 -2.218900
v 3.793411 -6.513172 -2.178671
v 2.365716 -7.109562 -2.169501
v 0.957117 -6.502522 -2.100793
v 2.255960 -5.093266 4.743681
v 2.284792 -5.022202 4.722390
v 2.357487 -4.990214 4.717219
v 2.431462 -5.016039 4.731197
v 2.463383 -5.084549 4.756136
v 2.434551 -5.155613 4.777428
v 2.361856 -5.187601 4.782599
v 2.287881 -5.161777 4.768621
v 3.703406 -6.467223 -0.826270
v 2.330660 -6.990124 -0.660993
v 1.007188 -3.717570 -0.528298
v 2.377991 -3.164847 -0.504361
v 0.995724 -6.435473 -0.715003
v 3.738062 -3.739213 -0.578417
v 0.414209 -5.076732 -0.686073
v 4.310133 -5.120077 -0.873740
v 3.550580 -6.232923 1.147173
v 1.182372 -3.929530 0.954854
v 2.428545 -6.802326 1.001626
v 2.349466 -3.437603 0.938618
v 1.179133 -6.273450 1.063068
v 3.522539 -3.912987 0.986318
v 0.722595 -5.091982 1.071651
v 3.942144 -5.030460 1.218791
v 3.279916 -6.046536 2.853234
v 1.402459 -4.114342 3.050050
v 2.344211 -6.456034 2.704318
v 2.379738 -3.726017 3.074979
v 1.374082 -6.041760 2.800945
v 3.345262 -4.136055 2.996726
v 0.985902 -5.073555 2.936541
v 3.765804 -5.116961 2.773893
v 2.359672 -5.382623 2.973559
v 2.359672 -4.795192 2.973559
v 2.151983 -5.296596 2.973559
v 2.567360 -4.881219 2.973559
v 2.065956 -5.088908 2.973559
v 2.653388 -5.088908 2.973559
v 2.567360 -5.296596 2.973559
v 2.151983 -4.881219 2.973559
v 2.359672 -5.417821 1.095592
v 2.359672 -4.759994 1.095592
v 2.127095 -5.321485 1.095592
v 2.592249 -4.856330 1.095592
v 2.030758 -5.088907 1.095592
v 2.688585 -5.088908 1.095592
v 2.592249 -5.321485 1.095592
v 2.127095 -4.856330 1.095592
v 2.359672 -5.482903 -0.641548
v 2.359672 -4.694911 -0.641548
v 2.081074 -5.367505 -0.641548
v 2.638269 -4.810310 -0.641548
v 1.965675 -5.088907 -0.641548
v 2.753668 -5.088907 -0.641548
v 2.638269 -5.367505 -0.641548
v 2.081074 -4.810310 -0.641548
v 2.361905 -4.776112 -3.126510
v 2.583739 -4.867998 -3.126510
v 2.675625 -5.089832 -3.126510
v 2.140070 -5.311666 -3.126510
v 2.023311 -5.053134 -3.036344
v 2.023311 -5.053134 -3.216675
v 2.099895 -5.131087 -3.126510
v 2.096533 -4.876360 -3.216675
v 2.096533 -4.876360 -3.036344
v 2.205807 -4.875392 -3.126510
v 2.350275 -5.980993 -1.564011
v 2.349487 -4.199394 -1.482214
v 1.750189 -5.690929 -1.497025
v 2.978552 -4.470027 -1.530518
v 1.484443 -5.088907 -1.530518
v 3.232854 -5.088085 -1.527257
v 2.980597 -5.708610 -1.533780
v 1.750977 -4.484313 -1.578822
v 2.356439 -5.947066 0.211136
v 2.359672 -4.205631 0.149185
v 1.735101 -5.713479 0.149185
v 2.984243 -4.464336 0.149185
v 1.476395 -5.088907 0.149185
v 3.242949 -5.088908 0.149185
v 2.987475 -5.738597 0.087234
v 1.735101 -4.464336 0.149185
v 2.364906 -5.874463 1.726321
v 2.359672 -4.312637 1.751789
v 1.810766 -5.637814 1.751789
v 2.908577 -4.540002 1.751789
v 1.583401 -5.088907 1.751789
v 3.135942 -5.088908 1.751789
v 2.903343 -5.628528 1.777257
v 1.810766 -4.540002 1.751789
v 2.733009 -5.418454 3.942336
v 1.955770 -4.718888 3.632260
v 2.400898 -5.671367 3.840004
v 2.349010 -4.546921 3.609373
v 1.970848 -5.485373 3.839612
v 2.748495 -4.692442 3.672373
v 1.799130 -5.107608 3.727628
v 2.920213 -5.070208 3.784358
v 2.024522 -5.038313 -2.789589
v 2.086910 -4.887696 -2.789589
v 2.385387 -4.848441 -2.813815
v 2.562954 -4.921991 -2.813815
v 2.636506 -5.099559 -2.813815
v 2.562954 -5.277127 -2.813815
v 2.385387 -5.350677 -2.813815
v 2.207819 -5.277127 -2.813815
v 2.386812 -4.819395 -3.718969
v 2.604918 -4.901263 -3.703796
v 2.686363 -5.098909 -3.697511
v 2.604918 -5.296556 -3.703796
v 2.386812 -5.378424 -3.718969
v 2.190185 -5.296556 -3.734143
v 2.627593 -5.362597 0.772502
v 2.092602 -4.821838 0.788828
v 2.358820 -5.459982 0.805152
v 2.359672 -4.711214 0.788828
v 2.092602 -5.355977 0.788828
v 2.626741 -4.821838 0.788828
v 1.981978 -5.088907 0.788828
v 2.737365 -5.088908 0.788828
v 2.643001 -5.371907 -0.881399
v 2.079637 -4.809977 -0.893529
v 2.357141 -5.493355 -0.889540
v 2.356929 -4.685153 -0.867513
v 2.079424 -5.367146 -0.871502
v 2.642450 -4.806129 -0.880521
v 1.959763 -5.088907 -0.880521
v 2.759029 -5.088686 -0.879643
v 2.611101 -5.339195 2.607768
v 2.106767 -4.836002 2.600588
v 2.361147 -5.449187 2.593410
v 2.359672 -4.731246 2.600588
v 2.106767 -5.341813 2.600588
v 2.612577 -4.836002 2.600588
v 2.002010 -5.088907 2.600588
v 2.717334 -5.088908 2.600588
v 2.558052 -5.296554 4.144635
v 2.150038 -4.875190 4.184415
v 2.365779 -5.393440 4.065393
v 2.364818 -4.790446 4.190666
v 2.142760 -5.297278 4.121640
v 2.576584 -4.880537 4.170914
v 2.058058 -5.085127 4.155823
v 2.661285 -5.092689 4.136731
v 2.578670 -5.303244 -3.050255
v 2.586559 -5.309654 -3.203378
v 2.613156 -5.240646 -3.126510
v 2.365135 -5.400293 -3.203361
v 2.367631 -5.390659 -3.050255
v 2.290884 -5.374135 -3.126510
v 2.584651 -5.312865 2.607012
v 2.133372 -4.862607 2.600588
v 2.360992 -5.411286 2.594165
v 2.359672 -4.768871 2.600588
v 2.133372 -5.315207 2.600588
v 2.585972 -4.862607 2.600588
v 2.039635 -5.088908 2.600588
v 2.679708 -5.088908 2.600588
v 2.593023 -5.327282 0.774609
v 2.127062 -4.856298 0.788828
v 2.358930 -5.412102 0.803046
v 2.359672 -4.759948 0.788828
v 2.127062 -5.321517 0.788828
v 2.592281 -4.856298 0.788828
v 2.030712 -5.088907 0.788828
v 2.688632 -5.088908 0.788828
v 2.619130 -5.348064 -0.881325
v 2.103229 -4.833476 -0.892433
v 2.357354 -5.459281 -0.888780
v 2.357160 -4.719168 -0.868609
v 2.103035 -5.343705 -0.872262
v 2.618626 -4.829953 -0.880521
v 1.993455 -5.088907 -0.880521
v 2.725384 -5.088705 -0.879717
vn -0.0481 0.1161 -0.9921
vn 0.3467 -0.9011 0.2605
vn 0.0777 -0.1877 -0.9792
vn 0.1824 -0.0756 -0.9803
vn -0.1214 0.0503 -0.9913
vn 0.2125 -0.0701 -0.9747
vn -0.1447 -0.0599 -0.9877
vn 0.0318 0.0768 -0.9965
vn -0.0713 -0.1722 -0.9825
vn -0.0700 0.3123 0.9474
vn -0.3550 0.8757 0.3273
vn -0.3623 -0.8926 0.2682
vn 0.2658 0.9190 0.2911
vn -0.8724 -0.3948 0.2882
vn 0.8354 0.4841 0.2605
vn 0.9215 -0.3000 0.2467
vn -0.8842 0.3444 0.3156
vn -0.0740 0.0306 -0.9968
vn -0.1417 0.0290 -0.9895
vn -0.1429 0.1500 -0.9783
vn 0.0289 0.0337 -0.9990
vn -0.0205 0.0798 -0.9966
vn 0.0485 0.0194 -0.9986
vn -0.0187 0.0895 -0.9958
vn -0.1252 0.0152 -0.9920
vn 0.0361 -0.1140 -0.9928
vn 0.0840 0.0320 -0.9960
vn 0.0959 0.0397 -0.9946
vn 0.0183 0.0076 -0.9998
vn -0.0339 -0.0819 -0.9961
vn 0.0100 0.0242 -0.9997
vn 0.0486 -0.1174 -0.9919
vn 0.0923 0.0720 -0.9931
vn 0.0131 0.1119 -0.9936
vn -0.1167 0.0483 -0.9920
vn -0.1711 0.1479 -0.9741
vn 0.0360 0.1528 -0.9876
vn -0.0468 0.0798 -0.9957
vn -0.0005 0.2261 -0.9741
vn -0.0122 0.0947 -0.9954
vn 0.0481 0.2424 -0.9690
vn -0.4574 0.2694 0.8475
vn 0.4773 -0.2030 0.8549
vn 0.5035 0.2116 0.8377
vn -0.5636 -0.1195 0.8173
vn 0.2047 0.5369 0.8184
vn -0.1442 -0.4961 0.8562
vn -0.3786 0.5405 0.7513
vn 0.1982 -0.4613 0.8648
vn -0.5333 0.2209 0.8165
vn 0.6448 -0.2652 0.7169
vn 0.6879 0.1324 0.7136
vn -0.5968 -0.2715 0.7550
vn 0.2675 0.5296 0.8050
vn -0.2812 -0.6043 0.7455
vn -0.2245 0.5210 0.8235
vn 0.3416 -0.6078 0.7169
vn -0.6128 0.3152 0.7247
vn 0.5741 -0.2101 0.7913
vn 0.5271 0.2183 0.8213
vn -0.6000 -0.2485 0.7605
vn 0.2621 0.6328 0.7286
vn -0.2235 -0.6055 0.7638
vn -0.2707 0.6536 0.7067
vn 0.2006 -0.5944 0.7787
vn -0.6155 0.1764 0.7681
vn 0.8235 -0.2022 0.5301
vn 0.6855 0.4751 0.5517
vn -0.6590 -0.3569 0.6621
vn 0.3083 0.5825 0.7521
vn -0.3226 -0.7447 0.5843
vn -0.2339 0.5366 0.8108
vn 0.2641 -0.7996 0.5393
vn -0.7461 0.3091 0.5897
vn 0.7392 -0.3458 0.5779
vn 0.7461 0.3091 0.5897
vn -0.7461 -0.3091 0.5897
vn 0.3091 0.7461 0.5897
vn -0.3341 -0.7308 0.5952
vn -0.3091 0.7461 0.5897
vn 0.3365 -0.7288 0.5963
vn -0.7535 0.3753 0.5397
vn 0.7655 -0.3171 0.5598
vn 0.7652 0.3174 0.5601
vn -0.7680 -0.3078 0.5616
vn 0.3615 0.7387 0.5689
vn -0.3120 -0.7667 0.5611
vn -0.3798 0.7236 0.5764
vn 0.3073 -0.7727 0.5555
vn -0.8407 0.3482 0.4146
vn 0.8412 -0.3451 0.4162
vn 0.8407 0.3482 0.4146
vn -0.8407 -0.3482 0.4146
vn 0.3482 0.8407 0.4146
vn -0.3441 -0.8428 0.4139
vn -0.3482 0.8407 0.4146
vn 0.3454 -0.8420 0.4145
vn -0.8603 0.3232 0.3942
vn 0.6299 -0.2910 0.7201
vn 0.7800 0.2168 0.5870
vn -0.7787 -0.3901 0.4914
vn 0.3861 0.8112 0.4392
vn -0.1747 -0.7667 0.6178
vn -0.3503 0.8605 0.3700
vn 0.2177 -0.5980 0.7713
vn -0.0000 0.0000 1.0000
vn 0.0000 0.0287 0.9996
vn 0.0198 -0.0198 0.9996
vn -0.0485 -0.0201 0.9986
vn 0.0000 -0.0595 0.9982
vn -0.0440 0.0440 0.9981
vn 0.1049 0.0435 0.9935
vn 0.0000 0.0466 0.9989
vn -0.0022 -0.0053 1.0000
vn -0.0022 0.0022 1.0000
vn 0.0000 0.0324 0.9995
vn 0.0320 -0.0320 0.9990
vn 0.0546 -0.0226 0.9983
vn -0.0788 -0.0326 0.9964
vn -0.0190 -0.0222 0.9996
vn -0.0552 0.1170 -0.9916
vn 0.4036 -0.8732 0.2733
vn 0.0718 -0.1869 -0.9797
vn 0.2124 -0.0519 -0.9758
vn -0.1453 0.0319 -0.9889
vn 0.0771 0.0319 -0.9965
vn -0.1492 -0.0953 -0.9842
vn 0.0017 0.1164 -0.9932
vn -0.0586 -0.1884 -0.9803
vn -0.3607 0.8728 0.3289
vn -0.3266 -0.9090 0.2591
vn 0.3954 0.8569 0.3306
vn -0.9065 -0.3237 0.2711
vn 0.8996 0.3096 0.3079
vn 0.8606 -0.4249 0.2806
vn -0.8522 0.4335 0.2929
vn 0.0293 0.1026 -0.9943
vn -0.1461 0.0605 -0.9874
vn 0.0409 0.0169 -0.9990
vn 0.0480 0.0199 -0.9986
vn 0.0368 0.0888 -0.9954
vn 0.0053 0.0128 -0.9999
vn -0.0304 0.0734 -0.9968
vn -0.0492 0.1189 -0.9917
vn 0.0183 -0.0076 -0.9998
vn 0.0996 -0.0413 -0.9942
vn 0.0665 -0.1792 -0.9816
vn 0.0195 0.0148 -0.9997
vn -0.0074 -0.1179 -0.9930
vn -0.0208 0.0667 -0.9976
vn 0.0348 -0.1153 -0.9927
vn 0.0163 -0.0394 -0.9991
vn 0.0341 -0.0141 -0.9993
vn -0.1765 0.0082 -0.9843
vn 0.0213 0.0088 -0.9997
vn 0.1566 0.0649 -0.9855
vn 0.0388 0.0936 -0.9949
vn 0.0997 0.2407 -0.9655
vn -0.0293 0.0708 -0.9971
vn -0.0473 0.1143 -0.9923
vn -0.5605 0.2051 0.8024
vn 0.5077 -0.1849 0.8415
vn 0.5103 0.2409 0.8256
vn -0.4842 -0.1659 0.8591
vn 0.2986 0.5557 0.7759
vn -0.1595 -0.4684 0.8690
vn -0.2076 0.5099 0.8348
vn 0.1760 -0.5013 0.8472
vn -0.6074 0.1750 0.7749
vn 0.6504 -0.3214 0.6883
vn 0.5529 0.2290 0.8011
vn -0.6183 -0.2561 0.7430
vn 0.2140 0.5168 0.8289
vn -0.3016 -0.6072 0.7351
vn -0.2194 0.5296 0.8194
vn 0.3180 -0.6039 0.7309
vn -0.6010 0.2489 0.7595
vn 0.5485 -0.2266 0.8049
vn 0.5576 0.3645 0.7458
vn -0.5975 -0.2365 0.7662
vn 0.2396 0.6624 0.7098
vn -0.2207 -0.6097 0.7613
vn -0.2653 0.6529 0.7094
vn 0.1991 -0.5969 0.7772
vn -0.6257 0.4143 0.6610
vn 0.7184 -0.3229 0.6161
vn 0.6865 0.1319 0.7150
vn -0.8010 -0.1965 0.5655
vn 0.0656 0.5427 0.8374
vn -0.2792 -0.7834 0.5552
vn -0.2053 0.5749 0.7921
vn 0.3625 -0.7169 0.5955
vn 0.7401 -0.3317 0.5850
vn -0.3226 -0.7313 0.6010
vn 0.3556 -0.7280 0.5862
vn -0.7559 0.3507 0.5528
vn 0.7652 0.3178 0.5600
vn -0.7653 -0.3108 0.5637
vn 0.3399 0.7399 0.5806
vn -0.3094 -0.7691 0.5592
vn -0.4301 0.7179 0.5474
vn 0.3110 -0.7694 0.5580
vn 0.8423 -0.3435 0.4154
vn -0.3416 -0.8444 0.4127
vn 0.3464 -0.8413 0.4150
vn -0.7837 0.4266 0.4515
vn 0.7995 -0.1681 0.5767
vn 0.7601 0.4765 0.4419
vn -0.7825 -0.1789 0.5963
vn 0.2670 0.8914 0.3662
vn -0.2717 -0.6267 0.7304
vn -0.3545 0.8596 0.3680
vn 0.1480 -0.7853 0.6012
vn -0.7539 -0.6538 0.0645
vn -0.3275 0.9412 -0.0825
vn 0.3801 0.9176 -0.1161
vn 0.9199 0.3810 -0.0930
vn 0.9207 -0.3814 -0.0834
vn 0.3810 -0.9199 -0.0930
vn -0.3801 -0.9176 -0.1161
vn -0.9251 0.3774 0.0417
vn 0.1338 0.0000 -0.9910
vn 0.3984 -0.9145 0.0705
vn -0.3819 0.9219 0.0651
vn -0.3819 -0.9219 0.0651
vn 0.3819 0.9219 0.0651
vn -0.9219 -0.3819 0.0651
vn 0.9219 0.3819 0.0651
vn 0.9222 -0.3820 0.0605
vn -0.9219 0.3819 0.0651
vn 0.3826 -0.9237 -0.0190
vn -0.3827 0.9239 0.0001
vn -0.3639 -0.9314 0.0001
vn 0.3827 0.9239 0.0001
vn -0.9239 -0.3827 0.0001
vn 0.9239 0.3827 0.0001
vn 0.9279 -0.3727 0.0090
vn -0.9239 0.3827 0.0001
vn 0.3916 -0.9156 -0.0912
vn -0.3810 0.9198 -0.0940
vn -0.3794 -0.9160 -0.1306
vn 0.3838 0.9172 -0.1069
vn -0.9122 -0.3958 -0.1060
vn 0.9184 0.3804 -0.1087
vn 0.9206 -0.3765 -0.1040
vn -0.9144 0.3876 -0.1165
vn -0.7433 -0.6668 -0.0549
vn 0.9190 -0.3806 0.1031
vn -0.3763 -0.9085 0.1819
vn 0.9244 0.3813 0.0113
vn 0.3536 0.9345 -0.0409
vn -0.1403 0.9801 -0.1407
vn -0.6167 0.2554 -0.7446
vn -0.6167 0.2554 0.7446
vn -0.9239 0.3827 -0.0014
vn -0.9237 0.3826 -0.0184
vn -0.3819 -0.9226 -0.0544
vn 0.3521 -0.9359 -0.0116
vn 0.9236 -0.3826 0.0239
vn 0.9165 0.3796 0.1265
vn 0.3763 0.9085 0.1819
vn 0.3030 0.9303 0.2068
vn 0.8978 0.3808 0.2212
vn 0.9008 -0.3813 0.2079
vn 0.3083 -0.9351 0.1750
vn -0.4006 -0.8950 0.1961
vn 0.3303 -0.7973 -0.5052
vn 0.3104 -0.7583 0.5733
vn 0.3796 -0.9165 0.1265
vn -0.9062 -0.3597 0.2224
vn -0.8967 -0.4345 -0.0848
vn -0.8217 -0.1828 0.5399
vn -0.4016 0.8865 0.2298
vn -0.0779 0.9947 0.0678
vn -0.4517 0.7103 0.5399
vn 0.9207 -0.3813 -0.0834
vn -0.9230 0.3823 0.0429
vn 0.1337 0.0000 -0.9910
vn 0.1126 0.0000 -0.9936
vn 0.3820 -0.9223 0.0590
vn -0.3863 -0.9198 0.0681
vn 0.9192 -0.3883 0.0649
vn 0.3425 -0.9393 0.0178
vn -0.3826 -0.9237 -0.0171
vn 0.9239 -0.3827 0.0001
vn 0.3806 -0.9188 -0.1049
vn -0.3982 0.9095 -0.1192
vn -0.4168 -0.9053 -0.0826
vn 0.3807 0.9190 -0.1024
vn -0.9165 -0.3796 -0.1264
vn 0.9192 0.3789 -0.1067
vn 0.9183 -0.3804 -0.1094
vn -0.9186 0.3805 -0.1068
vn -0.9501 -0.2114 0.2292
vn -0.7922 -0.5938 -0.1407
vn -0.9228 -0.3822 -0.0488
vn -0.7906 -0.6110 0.0406
vn 0.9238 0.3827 0.0118
vn 0.3822 0.9227 -0.0513
vn -0.5224 0.8213 0.2292
vn -0.0541 0.9970 -0.0549
vn -0.1270 0.9911 0.0406
vn -0.3822 0.9228 -0.0488
vn -0.3802 -0.9233 -0.0551
vn -0.3821 -0.9225 -0.0552
vn 0.3787 -0.9252 -0.0233
vn 0.9240 -0.3815 0.0239
vn 0.9237 -0.3825 0.0234
vn 0.3291 0.9179 0.2216
vn 0.8988 0.3775 0.2228
vn 0.9017 -0.3782 0.2094
vn 0.3334 -0.9235 0.1897
vn -0.3897 -0.8988 0.2007
vn 0.3158 -0.7625 0.5647
usemtl leaf
s off
f 12//1 23//1 14//1
f 161//2 31//2 163//2
f 4//3 19//3 6//3
f 2//4 18//4 4//4
f 10//5 22//5 12//5
f 2//6 24//6 17//6
f 8//7 21//7 10//7
f 14//8 24//8 16//8
f 6//9 20//9 8//9
f 27//10 25//10 31//10
f 162//11 27//11 164//11
f 165//12 31//12 32//12
f 166//13 27//13 28//13
f 165//14 25//14 167//14
f 168//15 28//15 29//15
f 161//16 29//16 30//16
f 167//17 26//17 162//17
f 77//18 35//18 80//18
f 79//19 40//19 33//19
f 78//20 38//20 40//20
f 77//21 37//21 39//21
f 76//22 36//22 38//22
f 75//23 34//23 37//23
f 74//24 35//24 36//24
f 73//25 33//25 34//25
f 72//26 47//26 42//26
f 71//27 48//27 41//27
f 68//28 48//28 70//28
f 67//29 47//29 69//29
f 66//30 46//30 68//30
f 65//31 45//31 67//31
f 72//32 44//32 66//32
f 65//33 41//33 43//33
f 64//34 55//34 50//34
f 62//35 49//35 63//35
f 62//36 54//36 56//36
f 61//37 53//37 55//37
f 60//38 52//38 54//38
f 59//39 51//39 53//39
f 58//40 50//40 52//40
f 57//41 49//41 51//41
f 18//42 95//42 98//42
f 22//43 96//43 97//43
f 21//44 94//44 96//44
f 24//45 95//45 17//45
f 19//46 94//46 20//46
f 24//47 91//47 93//47
f 19//48 98//48 92//48
f 22//49 91//49 23//49
f 35//50 103//50 106//50
f 40//51 105//51 33//51
f 38//52 104//52 40//52
f 37//53 103//53 39//53
f 36//54 102//54 38//54
f 34//55 101//55 37//55
f 35//56 100//56 36//56
f 34//57 105//57 99//57
f 47//58 114//58 42//58
f 41//59 112//59 113//59
f 48//60 110//60 112//60
f 47//61 109//61 111//61
f 46//62 108//62 110//62
f 45//63 107//63 109//63
f 44//64 114//64 108//64
f 41//65 107//65 43//65
f 55//66 116//66 50//66
f 49//67 122//67 115//67
f 56//68 120//68 122//68
f 53//69 121//69 55//69
f 52//70 120//70 54//70
f 53//71 117//71 119//71
f 50//72 118//72 52//72
f 49//73 117//73 51//73
f 106//74 143//74 138//74
f 104//75 137//75 105//75
f 102//76 144//76 104//76
f 101//77 143//77 103//77
f 100//78 142//78 102//78
f 99//79 141//79 101//79
f 100//80 138//80 140//80
f 99//81 137//81 139//81
f 95//82 146//82 98//82
f 96//83 145//83 97//83
f 96//84 150//84 152//84
f 93//85 151//85 95//85
f 92//86 150//86 94//86
f 93//87 147//87 149//87
f 92//88 146//88 148//88
f 97//89 147//89 91//89
f 114//90 159//90 154//90
f 113//91 160//91 153//91
f 110//92 160//92 112//92
f 109//93 159//93 111//93
f 108//94 158//94 110//94
f 109//95 155//95 157//95
f 114//96 156//96 108//96
f 113//97 155//97 107//97
f 116//98 167//98 162//98
f 115//99 168//99 161//99
f 122//100 166//100 168//100
f 121//101 165//101 167//101
f 120//102 164//102 166//102
f 119//103 163//103 165//103
f 118//104 162//104 164//104
f 115//105 163//105 117//105
f 159//106 176//106 154//106
f 153//107 182//107 175//107
f 158//106 182//106 160//106
f 157//106 181//106 159//106
f 156//106 180//106 158//106
f 157//108 177//108 179//108
f 154//106 178//106 156//106
f 153//109 177//109 155//109
f 143//106 184//106 138//106
f 144//110 183//110 137//110
f 142//106 190//106 144//106
f 141//106 189//106 143//106
f 140//106 188//106 142//106
f 139//111 187//111 141//111
f 138//106 186//106 140//106
f 139//112 183//112 185//112
f 146//113 197//113 192//113
f 152//114 191//114 145//114
f 152//115 196//115 198//115
f 149//116 197//116 151//116
f 150//117 194//117 196//117
f 149//118 193//118 195//118
f 146//119 194//119 148//119
f 145//120 193//120 147//120
f 12//121 22//121 23//121
f 161//122 30//122 31//122
f 4//123 18//123 19//123
f 2//124 17//124 18//124
f 10//125 21//125 22//125
f 2//126 16//126 24//126
f 8//127 20//127 21//127
f 14//128 23//128 24//128
f 6//129 19//129 20//129
f 27//10 26//10 25//10
f 25//10 32//10 31//10
f 31//10 30//10 29//10
f 29//10 28//10 31//10
f 28//10 27//10 31//10
f 162//130 26//130 27//130
f 165//131 163//131 31//131
f 166//132 164//132 27//132
f 165//133 32//133 25//133
f 168//134 166//134 28//134
f 161//135 168//135 29//135
f 167//136 25//136 26//136
f 77//137 39//137 35//137
f 79//138 78//138 40//138
f 78//139 76//139 38//139
f 77//140 75//140 37//140
f 76//141 74//141 36//141
f 75//142 73//142 34//142
f 74//143 80//143 35//143
f 73//144 79//144 33//144
f 72//145 69//145 47//145
f 71//146 70//146 48//146
f 68//147 46//147 48//147
f 67//148 45//148 47//148
f 66//149 44//149 46//149
f 65//150 43//150 45//150
f 72//151 42//151 44//151
f 65//152 71//152 41//152
f 64//153 61//153 55//153
f 62//154 56//154 49//154
f 62//155 60//155 54//155
f 61//156 59//156 53//156
f 60//157 58//157 52//157
f 59//158 57//158 51//158
f 58//159 64//159 50//159
f 57//160 63//160 49//160
f 18//161 17//161 95//161
f 22//162 21//162 96//162
f 21//163 20//163 94//163
f 24//164 93//164 95//164
f 19//165 92//165 94//165
f 24//166 23//166 91//166
f 19//167 18//167 98//167
f 22//168 97//168 91//168
f 35//169 39//169 103//169
f 40//170 104//170 105//170
f 38//171 102//171 104//171
f 37//172 101//172 103//172
f 36//173 100//173 102//173
f 34//174 99//174 101//174
f 35//175 106//175 100//175
f 34//176 33//176 105//176
f 47//177 111//177 114//177
f 41//178 48//178 112//178
f 48//179 46//179 110//179
f 47//180 45//180 109//180
f 46//181 44//181 108//181
f 45//182 43//182 107//182
f 44//183 42//183 114//183
f 41//184 113//184 107//184
f 55//185 121//185 116//185
f 49//186 56//186 122//186
f 56//187 54//187 120//187
f 53//188 119//188 121//188
f 52//189 118//189 120//189
f 53//190 51//190 117//190
f 50//191 116//191 118//191
f 49//192 115//192 117//192
f 106//74 103//74 143//74
f 104//193 144//193 137//193
f 102//76 142//76 144//76
f 101//77 141//77 143//77
f 100//78 140//78 142//78
f 99//194 139//194 141//194
f 100//80 106//80 138//80
f 99//195 105//195 137//195
f 95//196 151//196 146//196
f 96//83 152//83 145//83
f 96//197 94//197 150//197
f 93//198 149//198 151//198
f 92//199 148//199 150//199
f 93//200 91//200 147//200
f 92//201 98//201 146//201
f 97//202 145//202 147//202
f 114//90 111//90 159//90
f 113//203 112//203 160//203
f 110//92 158//92 160//92
f 109//93 157//93 159//93
f 108//94 156//94 158//94
f 109//204 107//204 155//204
f 114//96 154//96 156//96
f 113//205 153//205 155//205
f 116//206 121//206 167//206
f 115//207 122//207 168//207
f 122//208 120//208 166//208
f 121//209 119//209 165//209
f 120//210 118//210 164//210
f 119//211 117//211 163//211
f 118//212 116//212 162//212
f 115//213 161//213 163//213
f 159//106 181//106 176//106
f 153//107 160//107 182//107
f 158//106 180//106 182//106
f 157//106 179//106 181//106
f 156//106 178//106 180//106
f 157//108 155//108 177//108
f 154//106 176//106 178//106
f 153//109 175//109 177//109
f 143//106 189//106 184//106
f 144//110 190//110 183//110
f 142//106 188//106 190//106
f 141//106 187//106 189//106
f 140//106 186//106 188//106
f 139//111 185//111 187//111
f 138//106 184//106 186//106
f 139//112 137//112 183//112
f 146//113 151//113 197//113
f 152//114 198//114 191//114
f 152//115 150//115 196//115
f 149//116 195//116 197//116
f 150//117 148//117 194//117
f 149//118 147//118 193//118
f 146//119 192//119 194//119
f 145//120 191//120 193//120
usemtl Wood
f 86//214 1//214 136//214
f 81//215 131//215 88//215
f 125//216 8//216 126//216
f 126//217 10//217 127//217
f 10//218 128//218 127//218
f 12//219 129//219 128//219
f 14//220 130//220 129//220
f 86//221 3//221 1//221
f 1//222 5//222 13//222
f 175//223 57//223 177//223
f 176//224 58//224 178//224
f 179//225 57//225 59//225
f 180//226 58//226 60//226
f 179//227 61//227 181//227
f 180//228 62//228 182//228
f 175//229 62//229 63//229
f 181//230 64//230 176//230
f 185//231 71//231 65//231
f 184//232 66//232 186//232
f 185//233 67//233 187//233
f 186//234 68//234 188//234
f 187//235 69//235 189//235
f 188//236 70//236 190//236
f 190//237 71//237 183//237
f 189//238 72//238 184//238
f 191//239 73//239 193//239
f 194//240 80//240 74//240
f 195//241 73//241 75//241
f 194//242 76//242 196//242
f 195//243 77//243 197//243
f 198//244 76//244 78//244
f 198//245 79//245 191//245
f 197//246 80//246 192//246
f 85//247 87//247 130//247
f 127//248 128//248 169//248
f 173//249 129//249 130//249
f 132//250 83//250 133//250
f 131//251 82//251 132//251
f 125//252 124//252 6//252
f 87//253 89//253 90//253
f 87//254 88//254 86//254
f 2//255 124//255 123//255
f 123//256 89//256 85//256
f 172//257 84//257 136//257
f 170//258 135//258 134//258
f 83//259 171//259 170//259
f 126//260 83//260 82//260
f 125//261 82//261 81//261
f 131//262 7//262 5//262
f 132//263 9//263 7//263
f 9//264 134//264 11//264
f 11//265 135//265 13//265
f 13//266 136//266 15//266
f 171//267 173//267 174//267
f 171//268 172//268 170//268
f 169//269 129//269 173//269
f 1//270 15//270 136//270
f 136//271 84//271 86//271
f 84//272 87//272 86//272
f 5//273 3//273 131//273
f 3//274 88//274 131//274
f 88//275 90//275 81//275
f 125//216 6//216 8//216
f 126//217 8//217 10//217
f 10//276 12//276 128//276
f 12//219 14//219 129//219
f 14//220 16//220 130//220
f 86//277 88//277 3//277
f 15//278 1//278 13//278
f 1//222 3//222 5//222
f 5//279 7//279 13//279
f 7//222 9//222 11//222
f 11//279 13//279 7//279
f 175//280 63//280 57//280
f 176//224 64//224 58//224
f 179//281 177//281 57//281
f 180//226 178//226 58//226
f 179//227 59//227 61//227
f 180//228 60//228 62//228
f 175//282 182//282 62//282
f 181//230 61//230 64//230
f 185//283 183//283 71//283
f 184//232 72//232 66//232
f 185//284 65//284 67//284
f 186//234 66//234 68//234
f 187//235 67//235 69//235
f 188//236 68//236 70//236
f 190//285 70//285 71//285
f 189//238 69//238 72//238
f 191//286 79//286 73//286
f 194//287 192//287 80//287
f 195//288 193//288 73//288
f 194//289 74//289 76//289
f 195//290 75//290 77//290
f 198//291 196//291 76//291
f 198//292 78//292 79//292
f 197//293 77//293 80//293
f 87//294 84//294 130//294
f 130//295 16//295 123//295
f 16//296 2//296 123//296
f 123//297 85//297 130//297
f 171//248 83//248 169//248
f 83//248 127//248 169//248
f 84//249 174//249 130//249
f 174//249 173//249 130//249
f 132//298 82//298 83//298
f 131//299 81//299 82//299
f 81//300 90//300 125//300
f 90//301 89//301 125//301
f 89//302 124//302 125//302
f 124//303 4//303 6//303
f 87//253 85//253 89//253
f 87//254 90//254 88//254
f 2//255 4//255 124//255
f 123//256 124//256 89//256
f 136//304 135//304 172//304
f 172//305 174//305 84//305
f 170//306 172//306 135//306
f 134//307 133//307 170//307
f 133//308 83//308 170//308
f 126//260 127//260 83//260
f 125//261 126//261 82//261
f 131//309 132//309 7//309
f 132//310 133//310 9//310
f 9//311 133//311 134//311
f 11//312 134//312 135//312
f 13//313 135//313 136//313
f 171//267 169//267 173//267
f 171//314 174//314 172//314
f 169//269 128//269 129//269
