# Blender v2.79 (sub 0) OBJ File: ''
# www.blender.org
mtllib blue.mtl
o Cube_Cube.001
v -1.482580 -1.676944 -0.039070
v -1.482566 -0.074158 -1.641858
v -1.482567 -1.676944 -1.641857
v -1.482567 -3.279732 -1.641857
v 1.482578 -3.279733 -0.039047
v 1.482590 -3.279733 -1.641834
v 1.482599 -0.701505 -2.671744
v -1.482558 -0.701505 -2.671767
v 1.482599 -0.074158 -2.671744
v -1.482558 -0.074158 -2.671768
v -1.482561 1.517246 -2.339558
v -1.482579 -0.074158 -0.039071
v -1.482566 1.528630 -1.641858
v -1.482565 3.131418 -1.641858
v -1.482579 1.528630 -0.039071
v 1.482597 1.517245 -2.339535
v 1.482592 3.131417 -1.641834
v 1.482579 3.131417 -0.039048
v -1.482578 3.131418 -0.039071
v 1.482591 -0.074158 -1.641834
v 1.482578 -1.676945 -0.039047
v 1.482590 -1.676945 -1.641834
v 1.482592 1.528630 -1.641834
v 1.482578 -0.074158 -0.039047
v 1.482579 1.528630 -0.039047
v -1.482579 -3.279732 -0.039070
vt 0.625000 0.781250
vt 0.750000 0.906250
vt 0.625000 0.906250
vt 0.500000 0.906250
vt 0.250000 0.625000
vt 0.492188 0.750000
vt 0.250000 0.750000
vt 0.250000 1.000000
vt 0.492188 0.875000
vt 0.492188 1.000000
vt 0.703125 0.984375
vt 0.000000 0.718750
vt 0.242188 0.671875
vt 0.242188 0.718750
vt 0.875000 0.960938
vt 0.750000 0.984375
vt 0.750000 0.781250
vt 0.875000 0.906250
vt 1.000000 0.906250
vt 0.875000 0.781250
vt 0.000000 0.859375
vt 0.242188 0.859375
vt 0.242188 1.000000
vt -0.000000 1.000000
vt 0.734375 0.625000
vt 0.492188 0.750000
vt 0.492188 0.625000
vt 0.750000 0.906250
vt 0.625000 0.781250
vt 0.625000 0.906250
vt 0.500000 0.906250
vt 0.695312 0.984375
vt 0.875000 0.960938
vt 0.875000 0.906250
vt 0.750000 0.781250
vt 1.000000 0.906250
vt 0.875000 0.781250
vt 0.250000 0.875000
vt 0.500000 0.781250
vt 0.492188 0.625000
vt 0.000000 0.671875
vt 1.000000 0.781250
vt 0.734375 0.750000
vt 0.500000 0.781250
vt 0.750000 0.984375
vt 1.000000 0.781250
vn -1.0000 0.0000 -0.0000
vn -0.0000 -1.0000 0.0000
vn 0.0000 -0.7260 -0.6876
vn 0.0000 -0.0000 -1.0000
vn 0.0000 0.2043 -0.9789
vn 0.0000 0.3968 -0.9179
vn 0.0000 1.0000 0.0000
vn 1.0000 -0.0000 0.0000
usemtl Material.001
s 1
f 1/1/1 2/2/1 3/3/1
f 4/4/1 1/1/1 3/3/1
f 5/5/2 4/6/2 6/7/2
f 7/8/3 3/9/3 8/10/3
f 2/2/1 8/11/1 3/3/1
f 9/12/4 8/13/4 10/14/4
f 2/2/1 11/15/1 10/16/1
f 12/17/1 13/18/1 2/2/1
f 11/15/1 13/18/1 14/19/1
f 15/20/1 14/19/1 13/18/1
f 16/21/5 10/14/5 11/22/5
f 16/21/6 14/23/6 17/24/6
f 18/25/7 14/26/7 19/27/7
f 20/28/8 21/29/8 22/30/8
f 21/29/8 6/31/8 22/30/8
f 7/32/8 20/28/8 22/30/8
f 20/28/8 16/33/8 23/34/8
f 23/34/8 24/35/8 20/28/8
f 16/33/8 17/36/8 23/34/8
f 17/36/8 25/37/8 23/34/8
f 4/6/4 22/38/4 6/7/4
f 1/1/1 12/17/1 2/2/1
f 4/4/1 26/39/1 1/1/1
f 5/5/2 26/40/2 4/6/2
f 7/8/3 22/38/3 3/9/3
f 2/2/1 10/16/1 8/11/1
f 9/12/4 7/41/4 8/13/4
f 2/2/1 13/18/1 11/15/1
f 12/17/1 15/20/1 13/18/1
f 15/20/1 19/42/1 14/19/1
f 16/21/5 9/12/5 10/14/5
f 16/21/6 11/22/6 14/23/6
f 18/25/7 17/43/7 14/26/7
f 20/28/8 24/35/8 21/29/8
f 21/29/8 5/44/8 6/31/8
f 7/32/8 9/45/8 20/28/8
f 20/28/8 9/45/8 16/33/8
f 23/34/8 25/37/8 24/35/8
f 17/36/8 18/46/8 25/37/8
f 4/6/4 3/9/4 22/38/4
