# Blender v2.79 (sub 0) OBJ File: 'low_poly_cars.blend'
# www.blender.org
mtllib red.mtl
o Cube.001_Cube.004
v 3.646169 1.656003 -0.816731
v 3.646169 1.656003 1.563338
v 2.043382 1.656003 -0.816731
v 2.043382 1.656003 1.563338
v 0.440594 1.656003 -0.816731
v 0.440594 1.656003 1.563338
v -1.162193 1.656003 -0.816731
v -1.162193 1.656003 1.563338
v -2.764981 1.656003 -0.816731
v -2.764981 1.656003 1.563338
v 0.932834 1.656003 2.764333
v 0.440594 1.656003 2.764333
v -1.162193 1.656003 2.764333
v -4.375320 1.656003 -0.816731
v -4.375320 1.656003 1.563338
v 3.646169 -2.048101 -0.816731
v 3.646169 -2.048101 1.563338
v 2.043382 -2.048101 -0.816731
v 2.043382 -2.048101 1.563338
v 0.440594 -2.048101 -0.816731
v 0.440594 -2.048101 1.563338
v -1.162193 -2.048101 -0.816731
v -1.162193 -2.048101 1.563338
v -2.764981 -2.048101 -0.816731
v -2.764981 -2.048101 1.563338
v 0.932834 -2.048101 2.764333
v 0.440594 -2.048101 2.764333
v -1.162193 -2.048101 2.764333
v -4.375320 -2.048101 -0.816731
v -4.375320 -2.048101 1.563338
vt 1.000000 0.367188
vt 0.851562 0.468750
vt 0.851562 0.367188
vt 0.851562 0.265625
vt 1.000000 0.046875
vt 0.851562 0.046875
vt 1.000000 0.468750
vt 0.851562 0.562500
vt 1.000000 0.562500
vt 0.851562 0.664062
vt 0.773438 0.468750
vt 0.437500 0.093750
vt 0.648438 0.000000
vt 0.648438 0.093750
vt 0.734375 0.367188
vt 0.773438 0.570312
vt 0.734375 0.570312
vt 0.773438 0.437500
vt 0.640625 0.367188
vt 0.640625 0.570312
vt 0.648438 0.093750
vt 0.851562 0.000000
vt 0.851562 0.093750
vt 0.851562 0.117188
vt 0.648438 0.265625
vt 0.648438 0.117188
vt 1.000000 0.664062
vt 0.851562 0.765625
vt 0.773438 0.765625
vt 0.851562 0.765625
vt 0.648438 0.367188
vt 0.648438 0.265625
vt 0.851562 0.468750
vt 1.000000 0.367188
vt 0.851562 0.367188
vt 0.851562 0.265625
vt 0.851562 0.562500
vt 1.000000 0.468750
vt 0.851562 0.664062
vt 1.000000 0.562500
vt 0.773438 0.468750
vt 0.773438 0.437500
vt 0.851562 0.765625
vt 1.000000 0.664062
vt 0.437500 0.195312
vt 0.648438 0.195312
vt 1.000000 0.265625
vt 0.773438 0.562500
vt 0.437500 0.000000
vt 0.773438 0.367188
vt 0.648438 0.000000
vt 0.851562 0.265625
vt 1.000000 0.765625
vt 1.000000 0.265625
vt 0.773438 0.562500
vt 1.000000 0.765625
vn 0.0000 1.0000 0.0000
vn 1.0000 0.0000 0.0000
vn 0.0000 0.0000 1.0000
vn 0.7342 0.0000 0.6789
vn -1.0000 0.0000 0.0000
vn 0.0000 -1.0000 0.0000
usemtl Material.002
s off
f 3/1/1 6/2/1 4/3/1
f 2/4/1 3/1/1 4/3/1
f 16/5/2 2/4/2 17/6/2
f 5/7/1 8/8/1 6/2/1
f 7/9/1 10/10/1 8/8/1
f 8/8/1 12/11/1 6/2/1
f 25/12/3 8/13/3 10/14/3
f 27/15/3 11/16/3 12/17/3
f 6/2/1 11/18/1 4/3/1
f 28/19/3 12/17/3 13/20/3
f 26/21/4 4/22/4 11/23/4
f 29/24/5 15/25/5 14/26/5
f 9/27/1 15/28/1 10/10/1
f 28/29/5 8/8/5 23/30/5
f 2/4/3 19/31/3 17/32/3
f 21/33/6 18/34/6 19/35/6
f 18/34/6 17/36/6 19/35/6
f 23/37/6 20/38/6 21/33/6
f 25/39/6 22/40/6 23/37/6
f 27/41/6 23/37/6 21/33/6
f 26/42/6 21/33/6 19/35/6
f 30/43/6 24/44/6 25/39/6
f 30/45/3 10/14/3 15/46/3
f 3/1/1 5/7/1 6/2/1
f 2/4/1 1/47/1 3/1/1
f 16/5/2 1/47/2 2/4/2
f 5/7/1 7/9/1 8/8/1
f 7/9/1 9/27/1 10/10/1
f 8/8/1 13/48/1 12/11/1
f 25/12/3 23/49/3 8/13/3
f 27/15/3 26/50/3 11/16/3
f 6/2/1 12/11/1 11/18/1
f 28/19/3 27/15/3 12/17/3
f 26/21/4 19/51/4 4/22/4
f 29/24/5 30/52/5 15/25/5
f 9/27/1 14/53/1 15/28/1
f 28/29/5 13/48/5 8/8/5
f 2/4/3 4/3/3 19/31/3
f 21/33/6 20/38/6 18/34/6
f 18/34/6 16/54/6 17/36/6
f 23/37/6 22/40/6 20/38/6
f 25/39/6 24/44/6 22/40/6
f 27/41/6 28/55/6 23/37/6
f 26/42/6 27/41/6 21/33/6
f 30/43/6 29/56/6 24/44/6
f 30/45/3 25/12/3 10/14/3
